<?xml version="1.0" encoding="UTF-8" standalone="no"?>
<svg width="15px" height="17px" viewBox="0 0 15 17" version="1.1" xmlns="http://www.w3.org/2000/svg" xmlns:xlink="http://www.w3.org/1999/xlink" xmlns:sketch="http://www.bohemiancoding.com/sketch/ns">
    <!-- Generator: Sketch 3.2.2 (9983) - http://www.bohemiancoding.com/sketch -->
    <title></title>
    <desc>Created with Sketch.</desc>
    <defs></defs>
    <g id="Page-1" stroke="none" stroke-width="1" fill="none" fill-rule="evenodd" sketch:type="MSPage">
        <g id="bg-04a-edit" sketch:type="MSArtboardGroup" transform="translate(-941.000000, -432.000000)" fill="#FFFFFF">
            <g id="Group" sketch:type="MSLayerGroup" transform="translate(528.000000, 418.000000)">
                <path d="M413,18.3928571 L413,17.75 C413,17.6562495 413.030134,17.5792414 413.090402,17.5189732 C413.15067,17.4587051 413.227678,17.4285714 413.321429,17.4285714 L416.425223,17.4285714 L417.128348,15.7511161 C417.228795,15.503347 417.409597,15.2924116 417.670759,15.1183036 C417.931921,14.9441956 418.196427,14.8571429 418.464286,14.8571429 L421.678571,14.8571429 C421.94643,14.8571429 422.210936,14.9441956 422.472098,15.1183036 C422.73326,15.2924116 422.914062,15.503347 423.014509,15.7511161 L423.717634,17.4285714 L426.821429,17.4285714 C426.915179,17.4285714 426.992187,17.4587051 427.052455,17.5189732 C427.112724,17.5792414 427.142857,17.6562495 427.142857,17.75 L427.142857,18.3928571 C427.142857,18.4866076 427.112724,18.5636158 427.052455,18.6238839 C426.992187,18.6841521 426.915179,18.7142857 426.821429,18.7142857 L425.857143,18.7142857 L425.857143,28.2366071 C425.857143,28.7924135 425.699778,29.2728774 425.385045,29.6780134 C425.070311,30.0831493 424.691966,30.2857143 424.25,30.2857143 L415.892857,30.2857143 C415.450891,30.2857143 415.072546,30.0898457 414.757812,29.6981027 C414.443079,29.3063596 414.285714,28.8325921 414.285714,28.2767857 L414.285714,18.7142857 L413.321429,18.7142857 C413.227678,18.7142857 413.15067,18.6841521 413.090402,18.6238839 C413.030134,18.5636158 413,18.4866076 413,18.3928571 L413,18.3928571 Z M415.571429,28.2366071 C415.571429,28.3839293 415.594866,28.5195306 415.641741,28.6434152 C415.688616,28.7672997 415.737165,28.8577006 415.787388,28.9146205 C415.837612,28.9715405 415.872768,29 415.892857,29 L424.25,29 C424.270089,29 424.305245,28.9715405 424.355469,28.9146205 C424.405692,28.8577006 424.454241,28.7672997 424.501116,28.6434152 C424.547991,28.5195306 424.571429,28.3839293 424.571429,28.2366071 L424.571429,18.7142857 L415.571429,18.7142857 L415.571429,28.2366071 Z M416.857143,26.75 L416.857143,20.9642857 C416.857143,20.8705352 416.887276,20.7935271 416.947545,20.7332589 C417.007813,20.6729908 417.084821,20.6428571 417.178571,20.6428571 L417.821429,20.6428571 C417.915179,20.6428571 417.992187,20.6729908 418.052455,20.7332589 C418.112724,20.7935271 418.142857,20.8705352 418.142857,20.9642857 L418.142857,26.75 C418.142857,26.8437505 418.112724,26.9207586 418.052455,26.9810268 C417.992187,27.0412949 417.915179,27.0714286 417.821429,27.0714286 L417.178571,27.0714286 C417.084821,27.0714286 417.007813,27.0412949 416.947545,26.9810268 C416.887276,26.9207586 416.857143,26.8437505 416.857143,26.75 L416.857143,26.75 Z M417.821429,17.4285714 L422.321429,17.4285714 L421.839286,16.2533482 C421.79241,16.1930801 421.735491,16.1562501 421.668527,16.1428571 L418.484375,16.1428571 C418.41741,16.1562501 418.360491,16.1930801 418.313616,16.2533482 L417.821429,17.4285714 Z M419.428571,26.75 L419.428571,20.9642857 C419.428571,20.8705352 419.458705,20.7935271 419.518973,20.7332589 C419.579241,20.6729908 419.65625,20.6428571 419.75,20.6428571 L420.392857,20.6428571 C420.486608,20.6428571 420.563616,20.6729908 420.623884,20.7332589 C420.684152,20.7935271 420.714286,20.8705352 420.714286,20.9642857 L420.714286,26.75 C420.714286,26.8437505 420.684152,26.9207586 420.623884,26.9810268 C420.563616,27.0412949 420.486608,27.0714286 420.392857,27.0714286 L419.75,27.0714286 C419.65625,27.0714286 419.579241,27.0412949 419.518973,26.9810268 C419.458705,26.9207586 419.428571,26.8437505 419.428571,26.75 L419.428571,26.75 Z M422,26.75 L422,20.9642857 C422,20.8705352 422.030134,20.7935271 422.090402,20.7332589 C422.15067,20.6729908 422.227678,20.6428571 422.321429,20.6428571 L422.964286,20.6428571 C423.058036,20.6428571 423.135044,20.6729908 423.195312,20.7332589 C423.255581,20.7935271 423.285714,20.8705352 423.285714,20.9642857 L423.285714,26.75 C423.285714,26.8437505 423.255581,26.9207586 423.195312,26.9810268 C423.135044,27.0412949 423.058036,27.0714286 422.964286,27.0714286 L422.321429,27.0714286 C422.227678,27.0714286 422.15067,27.0412949 422.090402,26.9810268 C422.030134,26.9207586 422,26.8437505 422,26.75 L422,26.75 Z" id="" sketch:type="MSShapeGroup"></path>
            </g>
        </g>
    </g>
</svg>