<?xml version="1.0" encoding="utf-8"?>
<!-- Generator: Adobe Illustrator 17.1.0, SVG Export Plug-In . SVG Version: 6.00 Build 0)  -->
<!DOCTYPE svg PUBLIC "-//W3C//DTD SVG 1.1//EN" "http://www.w3.org/Graphics/SVG/1.1/DTD/svg11.dtd">
<svg version="1.1" id="Layer_1" xmlns:sketch="http://www.bohemiancoding.com/sketch/ns"
	 xmlns="http://www.w3.org/2000/svg" xmlns:xlink="http://www.w3.org/1999/xlink" x="0px" y="0px" viewBox="-298 439.7 100 101"
	 enable-background="new -298 439.7 100 101" xml:space="preserve">
<title>icon_edit</title>
<desc>Created with Sketch.</desc>
<g id="Page-1" sketch:type="MSPage">
	<g id="bg-03-species" transform="translate(-1033.000000, -536.000000)" sketch:type="MSArtboardGroup">
		<g id="Group" transform="translate(300.000000, 100.000000)" sketch:type="MSLayerGroup">
			
				<g id="SUGGEST-CHANGES-_x2B_-_xF040_-2-_x2B_-PHYLUM-6-_x2B_-wolf-_x5B_en_x5D_" transform="translate(51.000000, 433.000000)" sketch:type="MSTextLayer">
				<g id="SUGGEST-CHANGES-_x2B_-_xF040_-2" transform="translate(683.000000, 1.000000)">
					<g enable-background="new    ">
						<path fill="#AAAAAA" d="M-299,542.7V515l55.4-55.4l27.7,27.7l-55.4,55.4H-299z M-290.1,524.9h8.9v8.9h6.9l5.9-5.9l-15.8-15.8
							l-5.9,5.9V524.9z M-279.2,508c0,1,0,1,1,1h1l35.6-35.6v-1c0-1,0-1-1-1h-1l-35.6,35.6V508z M-239.6,455.6l10.9-10.9
							c2-2,4-3,5.9-3c2,0,4,1,5.9,3l15.8,15.8c2,2,2,4,2,5.9s-1,4-2,5.9l-10.9,10.9L-239.6,455.6z"/>
					</g>
				</g>
			</g>
		</g>
	</g>
</g>
</svg>
