<?xml version="1.0" encoding="utf-8"?>
<!-- Generator: Adobe Illustrator 18.1.1, SVG Export Plug-In . SVG Version: 6.00 Build 0)  -->
<svg version="1.1" id="Layer_1" xmlns:sketch="http://www.bohemiancoding.com/sketch/ns"
	 xmlns="http://www.w3.org/2000/svg" xmlns:xlink="http://www.w3.org/1999/xlink" x="0px" y="0px" viewBox="-297 389 16 15"
	 enable-background="new -297 389 16 15" xml:space="preserve">
<title>icon_share</title>
<desc>Created with Sketch.</desc>
<g id="Page-1" sketch:type="MSPage">
	<g id="bg-03-species" transform="translate(-1097.000000, -264.000000)" sketch:type="MSArtboardGroup">
		<g id="Group" transform="translate(300.000000, 100.000000)" sketch:type="MSLayerGroup">
			
				<g id="_xF045_-_x2B_-SHARE-_x2B_-_xF005_-_x2B_-ADD-TO-FAVORITES" transform="translate(641.000000, 165.000000)" sketch:type="MSTextLayer">
				<g id="_xF045_-_x2B_-SHARE" transform="translate(157.000000, 0.000000)">
					<g enable-background="new    ">
						<path fill="#AAAAAA" d="M-297,400.4V393c0-0.7,0.3-1.3,0.8-1.8c0.5-0.5,1.1-0.8,1.8-0.8h2.3c0.1,0,0.1,0,0.2,0.1
							c0.1,0.1,0.1,0.1,0.1,0.2c0,0.2-0.1,0.3-0.2,0.3c-0.5,0.2-0.9,0.3-1.2,0.5c-0.1,0-0.1,0-0.1,0h-1c-0.4,0-0.7,0.1-1,0.4
							c-0.3,0.3-0.4,0.6-0.4,1v7.4c0,0.4,0.1,0.7,0.4,1c0.3,0.3,0.6,0.4,1,0.4h7.4c0.4,0,0.7-0.1,1-0.4c0.3-0.3,0.4-0.6,0.4-1v-1.9
							c0-0.1,0.1-0.2,0.2-0.3c0.2-0.1,0.3-0.2,0.5-0.3c0.1-0.1,0.2-0.1,0.3-0.1c0.1,0.1,0.2,0.1,0.2,0.3v2.3c0,0.7-0.3,1.3-0.8,1.8
							c-0.5,0.5-1.1,0.8-1.8,0.8h-7.4c-0.7,0-1.3-0.3-1.8-0.8C-296.7,401.7-297,401.1-297,400.4z M-294.7,396.7c0-0.3,0-0.6,0-0.8
							s0.1-0.5,0.1-0.8c0.1-0.3,0.1-0.5,0.2-0.8s0.2-0.5,0.4-0.7c0.2-0.2,0.4-0.5,0.6-0.7c0.2-0.2,0.5-0.4,0.8-0.5
							c0.3-0.2,0.7-0.3,1.1-0.4c0.4-0.1,0.9-0.2,1.4-0.3s1.1-0.1,1.8-0.1h1.4v-1.7c0-0.2,0.1-0.4,0.3-0.5c0.1,0,0.2,0,0.2,0
							c0.2,0,0.3,0.1,0.4,0.2l3.4,3.4c0.1,0.1,0.2,0.2,0.2,0.4c0,0.2-0.1,0.3-0.2,0.4l-3.4,3.4c-0.1,0.1-0.2,0.2-0.4,0.2
							c-0.1,0-0.1,0-0.2,0c-0.2-0.1-0.3-0.3-0.3-0.5V395h-1.4c-1.9,0-3.2,0.4-3.9,1.2c-0.7,0.8-0.9,2.2-0.7,4.2c0,0.1,0,0.2-0.2,0.3
							c0,0-0.1,0-0.1,0c-0.1,0-0.2,0-0.2-0.1c-0.1-0.1-0.1-0.2-0.2-0.3c-0.1-0.1-0.2-0.3-0.4-0.6c-0.2-0.3-0.3-0.6-0.4-0.9
							c-0.1-0.3-0.2-0.6-0.3-1S-294.7,397-294.7,396.7z"/>
					</g>
				</g>
			</g>
		</g>
	</g>
</g>
</svg>
