<?xml version="1.0" encoding="utf-8"?>
<!-- Generator: Adobe Illustrator 18.1.1, SVG Export Plug-In . SVG Version: 6.00 Build 0)  -->
<svg version="1.1" id="Layer_1" xmlns:sketch="http://www.bohemiancoding.com/sketch/ns"
	 xmlns="http://www.w3.org/2000/svg" xmlns:xlink="http://www.w3.org/1999/xlink" x="0px" y="0px" viewBox="-297 388 16 17"
	 enable-background="new -297 388 16 17" xml:space="preserve">
<title>icon_trash</title>
<desc>Created with Sketch.</desc>
<g id="Page-1" sketch:type="MSPage">
	<g id="bg-03-species" transform="translate(-940.000000, -412.000000)" sketch:type="MSArtboardGroup">
		<g id="Group" transform="translate(300.000000, 100.000000)" sketch:type="MSLayerGroup">
			<g enable-background="new    ">
				<path fill="#AAAAAA" d="M344,704.4v-0.6c0-0.1,0-0.2,0.1-0.2c0.1-0.1,0.1-0.1,0.2-0.1h3.1l0.7-1.7c0.1-0.2,0.3-0.5,0.5-0.6
					c0.3-0.2,0.5-0.3,0.8-0.3h3.2c0.3,0,0.5,0.1,0.8,0.3c0.3,0.2,0.4,0.4,0.5,0.6l0.7,1.7h3.1c0.1,0,0.2,0,0.2,0.1
					c0.1,0.1,0.1,0.1,0.1,0.2v0.6c0,0.1,0,0.2-0.1,0.2s-0.1,0.1-0.2,0.1h-1v9.5c0,0.6-0.2,1-0.5,1.4s-0.7,0.6-1.1,0.6h-8.4
					c-0.4,0-0.8-0.2-1.1-0.6c-0.3-0.4-0.5-0.9-0.5-1.4v-9.6h-1c-0.1,0-0.2,0-0.2-0.1C344,704.6,344,704.5,344,704.4z M346.6,714.2
					c0,0.1,0,0.3,0.1,0.4s0.1,0.2,0.1,0.3c0,0.1,0.1,0.1,0.1,0.1h8.4c0,0,0.1,0,0.1-0.1c0.1-0.1,0.1-0.1,0.1-0.3s0.1-0.3,0.1-0.4
					v-9.5h-9V714.2z M347.9,712.8V707c0-0.1,0-0.2,0.1-0.2c0.1-0.1,0.1-0.1,0.2-0.1h0.6c0.1,0,0.2,0,0.2,0.1
					c0.1,0.1,0.1,0.1,0.1,0.2v5.8c0,0.1,0,0.2-0.1,0.2c-0.1,0.1-0.1,0.1-0.2,0.1h-0.6c-0.1,0-0.2,0-0.2-0.1
					C347.9,712.9,347.9,712.8,347.9,712.8z M348.8,703.4h4.5l-0.5-1.2c0-0.1-0.1-0.1-0.2-0.1h-3.2c-0.1,0-0.1,0.1-0.2,0.1
					L348.8,703.4z M350.4,712.8V707c0-0.1,0-0.2,0.1-0.2c0.1-0.1,0.1-0.1,0.2-0.1h0.6c0.1,0,0.2,0,0.2,0.1c0.1,0.1,0.1,0.1,0.1,0.2
					v5.8c0,0.1,0,0.2-0.1,0.2c-0.1,0.1-0.1,0.1-0.2,0.1h-0.6c-0.1,0-0.2,0-0.2-0.1C350.5,712.9,350.4,712.8,350.4,712.8z M353,712.8
					V707c0-0.1,0-0.2,0.1-0.2c0.1-0.1,0.1-0.1,0.2-0.1h0.6c0.1,0,0.2,0,0.2,0.1s0.1,0.1,0.1,0.2v5.8c0,0.1,0,0.2-0.1,0.2
					c-0.1,0.1-0.1,0.1-0.2,0.1h-0.6c-0.1,0-0.2,0-0.2-0.1C353,712.9,353,712.8,353,712.8z"/>
			</g>
		</g>
	</g>
</g>
</svg>
