<?xml version="1.0" encoding="utf-8"?>
<!-- Generator: Adobe Illustrator 18.1.1, SVG Export Plug-In . SVG Version: 6.00 Build 0)  -->
<svg version="1.1" id="Layer_1" xmlns:sketch="http://www.bohemiancoding.com/sketch/ns"
	 xmlns="http://www.w3.org/2000/svg" xmlns:xlink="http://www.w3.org/1999/xlink" x="0px" y="0px" viewBox="-296 389.6 14.9 14.2"
	 enable-background="new -296 389.6 14.9 14.2" xml:space="preserve">
<title>icon_favorite</title>
<desc>Created with Sketch.</desc>
<g id="Page-1" sketch:type="MSPage">
	<g id="bg-03-species" transform="translate(-940.000000, -265.000000)" sketch:type="MSArtboardGroup">
		<g id="Group" transform="translate(300.000000, 100.000000)" sketch:type="MSLayerGroup">
			
				<g id="_xF045_-_x2B_-SHARE-_x2B_-_xF005_-_x2B_-ADD-TO-FAVORITES" transform="translate(641.000000, 165.000000)" sketch:type="MSTextLayer">
				<g id="_xF005_-_x2B_-ADD-TO-FAVORITES">
					<g enable-background="new    ">
						<path fill="#AAAAAA" d="M-297,395.1c0-0.2,0.2-0.4,0.5-0.4l4.5-0.7l2-4.1c0.1-0.2,0.3-0.4,0.4-0.4c0.2,0,0.3,0.1,0.4,0.4
							l2,4.1l4.5,0.7c0.3,0.1,0.5,0.2,0.5,0.4c0,0.1-0.1,0.3-0.2,0.4l-3.2,3.2l0.8,4.5c0,0,0,0.1,0,0.2c0,0.1,0,0.2-0.1,0.3
							c-0.1,0.1-0.2,0.1-0.3,0.1c-0.1,0-0.2,0-0.4-0.1l-4-2.1l-4,2.1c-0.1,0.1-0.2,0.1-0.4,0.1c-0.1,0-0.2,0-0.3-0.1
							c-0.1-0.1-0.1-0.2-0.1-0.3c0,0,0-0.1,0-0.2l0.8-4.5l-3.2-3.2C-296.9,395.3-297,395.2-297,395.1z"/>
					</g>
				</g>
			</g>
		</g>
	</g>
</g>
</svg>
